<svg width="39" height="60" viewBox="0 0 39 60" fill="none" xmlns="http://www.w3.org/2000/svg">
<path d="M24.0901 49.5936C24.0901 50.492 24.0735 51.3388 24.0935 52.1839C24.1317 53.6878 24.195 55.1901 24.2365 56.6941C24.2399 56.8105 24.18 56.9619 24.0985 57.0451C23.2633 57.8769 22.2984 58.5274 21.2054 58.9616C20.8643 59.0964 20.4534 59.0581 20.0841 59.0981C20.0841 58.5357 20.0741 58.01 20.0857 57.4843C20.1257 55.641 20.2072 53.7976 20.2122 51.9543C20.2271 46.4227 20.2172 40.8893 20.2038 35.3577C20.2022 34.3977 20.1257 33.4362 20.1007 32.4762C20.0974 32.3315 20.144 32.1601 20.2271 32.0453C20.8959 31.1287 21.7244 30.3767 22.7093 29.8194C23.0304 29.638 23.4313 29.5981 23.8289 29.4833C23.9121 30.7543 23.9903 31.9705 24.0752 33.2681C24.1999 33.15 24.2798 33.0718 24.363 32.9969C25.0318 32.3897 25.669 31.7409 26.3793 31.1852C27.9515 29.9525 29.7549 29.3735 31.7579 29.5199C33.7094 29.663 35.3215 30.5148 36.6374 31.9572C38.0615 33.5177 38.7303 35.3876 38.93 37.4555C39.1313 39.5434 38.9216 41.5914 38.0249 43.4896C36.3313 47.0731 33.5331 49.2492 29.5569 49.8032C28.0197 50.0178 26.4891 49.8564 24.9586 49.6901C24.6791 49.6568 24.3996 49.6269 24.0901 49.5936ZM34.666 39.951C34.6477 39.6333 34.6344 39.1575 34.5911 38.685C34.4414 37.0696 34.0588 35.524 33.1854 34.1299C32.1772 32.5211 30.7564 31.6394 28.8249 31.6877C26.94 31.7342 25.4577 32.6077 24.2349 33.9818C24.1401 34.0883 24.0752 34.2597 24.0752 34.4011C24.0669 38.4621 24.0669 42.523 24.0735 46.584C24.0735 46.7105 24.1151 46.8552 24.185 46.96C25.3429 48.6952 27.5871 49.5653 29.6301 49.0862C31.1241 48.7351 32.1506 47.7735 32.9624 46.5358C34.2418 44.586 34.6261 42.3933 34.666 39.951Z" fill="#AD2526"/>
<path d="M22.9703 25.9863C18.5267 25.9863 14.1197 25.9863 9.64778 25.9863C9.6328 26.5021 9.59288 26.9845 9.61118 27.4636C9.68937 29.5366 10.2151 31.4481 11.6126 33.0619C12.9984 34.664 14.7502 35.4525 16.8414 35.5457C17.2124 35.5623 17.5834 35.5474 18.001 35.5474C18.001 36.1246 18.011 36.6753 17.9893 37.226C17.986 37.2992 17.8346 37.4123 17.7381 37.4273C16.9579 37.5454 16.1776 37.7051 15.3907 37.7384C13.97 37.7999 12.5642 37.6253 11.2349 37.0846C8.39172 35.93 6.54339 33.8687 5.80639 30.8858C5.08437 27.9661 5.32726 25.1112 6.84285 22.4827C8.35844 19.8541 10.6044 18.1072 13.6406 17.535C15.4905 17.1856 17.3422 17.2072 19.1023 17.9675C21.3865 18.954 22.6443 20.7541 22.952 23.1897C23.0652 24.0898 22.9703 25.0131 22.9703 25.9863ZM9.70434 25.3308C9.894 25.3408 10.0271 25.3558 10.1602 25.3525C11.7639 25.3125 13.3744 25.3392 14.9698 25.2044C16.2225 25.0979 17.4586 24.7918 18.7014 24.5739C18.8661 24.5456 18.9859 24.494 18.9959 24.2794C19.0707 22.5575 18.723 20.9504 17.6932 19.538C16.497 17.896 14.341 17.5499 12.6756 18.7128C11.9336 19.2319 11.4229 19.9439 10.9887 20.7192C10.1984 22.1333 9.86072 23.6755 9.70434 25.3308Z" fill="#AD2526"/>
<path d="M0.359463 29.628C0.327854 29.2022 0.28959 28.8112 0.27129 28.4186C0.214725 27.2108 0.124888 26.0029 0.119897 24.7935C0.10326 19.6578 0.123224 14.5237 0.106588 9.38801C0.101597 7.4798 0.0250686 5.56826 0.000113726 3.65838C-0.00321359 3.43878 0.06666 3.1859 0.18478 3.0029C0.966698 1.79009 2.02146 0.861774 3.29249 0.187993C3.52707 0.0632189 3.82985 0.0665462 4.15426 0C4.15426 0.163038 4.15593 0.25953 4.15426 0.356022C4.09271 2.54872 3.98457 4.74142 3.97625 6.93578C3.95296 12.5789 3.9147 18.2254 4.00453 23.8668C4.03614 25.8399 3.31911 27.3838 2.10797 28.8145C1.79354 29.1855 1.43918 29.4417 0.948398 29.4983C0.768723 29.5166 0.594039 29.5748 0.359463 29.628Z" fill="#AD2526"/>
<path d="M23.476 8.50128C23.4444 8.56283 23.4045 8.7109 23.313 8.81571C21.6527 10.7372 19.826 12.4807 17.788 13.998C17.7331 14.0379 17.6732 14.1095 17.62 14.1045C17.4669 14.0912 17.2723 14.0928 17.1774 14.0013C17.1042 13.9315 17.0959 13.6852 17.1625 13.5954C18.5217 11.762 19.2853 9.65253 20.0073 7.52138C20.2286 6.8659 20.4182 6.77773 21.0571 7.0539C21.7192 7.34005 22.3814 7.62786 23.0452 7.91401C23.2731 8.01216 23.4694 8.13527 23.476 8.50128Z" fill="#AD2526"/>
</svg>
